<svg xmlns="http://www.w3.org/2000/svg" xmlns:xlink="http://www.w3.org/1999/xlink" width="10.523" height="11.476" viewBox="0 0 10.523 11.476">
    <defs>
        <linearGradient id="linear-gradient" x1="0.082" y1="0.077" x2="0.987" y2="1.267" gradientUnits="objectBoundingBox">
            <stop offset="0" stop-color="#78dbad"/>
            <stop offset="1" stop-color="#008fc7"/>
        </linearGradient>
    </defs>
    <path id="Path_18" data-name="Path 18" d="M289.138,73.684h-1.265a.912.912,0,0,1-.922-.9V70.307a.159.159,0,0,0-.169-.146h-1.47a.159.159,0,0,0-.169.146v2.477a.913.913,0,0,1-.922.9h-1.265a.913.913,0,0,1-.923-.9V68.853a.158.158,0,0,0-.168-.145h-.156a.909.909,0,0,1-.848-.546.873.873,0,0,1,.16-.954l4.338-4.715a.97.97,0,0,1,1.373,0l4.338,4.715a.872.872,0,0,1,.161.954.91.91,0,0,1-.848.546h-.156a.159.159,0,0,0-.169.145v3.931A.912.912,0,0,1,289.138,73.684Zm-3.826-4.276h1.47a.912.912,0,0,1,.922.9v2.477a.159.159,0,0,0,.169.146h1.265a.159.159,0,0,0,.169-.146V68.853a.912.912,0,0,1,.922-.9h.156a.162.162,0,0,0,.158-.095.123.123,0,0,0-.026-.142L286.178,63a.156.156,0,0,0-.263,0l-4.338,4.716a.122.122,0,0,0-.026.142.162.162,0,0,0,.158.095h.156a.911.911,0,0,1,.921.9v3.931a.159.159,0,0,0,.169.146h1.265a.159.159,0,0,0,.169-.146V70.307A.912.912,0,0,1,285.312,69.408Z" transform="translate(-280.785 -62.208)" fill="url(#linear-gradient)"/>
</svg>
