<svg id="Component_1_1" data-name="Component 1 – 1" xmlns="http://www.w3.org/2000/svg" width="279.379" height="71.755" viewBox="0 0 279.379 71.755">
  <g id="Group_1" data-name="Group 1">
    <path id="Path_1" data-name="Path 1" d="M26.492.069v15.3H7.065V0H0V41.506H7.065V22.777H26.492V41.643h7.336V.069Z" transform="translate(90.469 16.991)" fill="#fff"/>
    <path id="Path_2" data-name="Path 2" d="M26.492.069V15.441H7.065V0H0V41.7H7.065V22.886H26.492V41.842h7.336V.069Z" transform="translate(0 16.94)" fill="#fff"/>
    <path id="Rectangle_38" data-name="Rectangle 38" d="M0,0H7.081V41.646H0Z" transform="translate(37.139 16.89)" fill="#fff"/>
    <path id="Path_3" data-name="Path 3" d="M19.4,18.408v6.568H33.13a8.7,8.7,0,0,1-.141,1.543,11.071,11.071,0,0,1-1.2,3.458,9.9,9.9,0,0,1-3.407,3.618,14.35,14.35,0,0,1-6.776,2.023,15.539,15.539,0,0,1-1.9-.21,19.181,19.181,0,0,1-4.3-1.226,13.2,13.2,0,0,1-4.6-3.135A11.057,11.057,0,0,1,8.02,25.108a27.293,27.293,0,0,1-.33-3.856,21.35,21.35,0,0,1,.3-3.932,15.666,15.666,0,0,1,1.125-3.74A12.251,12.251,0,0,1,11.259,10.3a12.89,12.89,0,0,1,4.1-2.942,14.972,14.972,0,0,1,4.972-1.311,14.006,14.006,0,0,1,5.09.476,11.483,11.483,0,0,1,4.451,2.42,7.138,7.138,0,0,1,1.141,1.289,6.892,6.892,0,0,1,.781,1.5,6.6,6.6,0,0,1,.384,1.632,6.4,6.4,0,0,1-.05,1.695,8,8,0,0,1,1.661-.143c.562,0,1.13.047,1.7.093s1.136.1,1.7.112a8.935,8.935,0,0,0,1.66-.087c.21-.033.365-.049.481-.07a.409.409,0,0,0,.24-.1.426.426,0,0,0,.082-.265c.01-.131.008-.312.007-.565a11.584,11.584,0,0,0-1.8-6.242,14.586,14.586,0,0,0-4.58-4.454A21.365,21.365,0,0,0,27.077.725,23.513,23.513,0,0,0,20.438.018a25.969,25.969,0,0,0-3.814.435,23.592,23.592,0,0,0-3.687,1.013A20.76,20.76,0,0,0,9.5,3.083,18.352,18.352,0,0,0,6.456,5.331,18.834,18.834,0,0,0,2.035,11.6a23.936,23.936,0,0,0-1.95,7.718,23.5,23.5,0,0,0,.661,7.918,18.2,18.2,0,0,0,3.411,6.87A23.079,23.079,0,0,0,7,37.073a15.854,15.854,0,0,0,3.414,2.254,18.591,18.591,0,0,0,4.41,1.466,32.236,32.236,0,0,0,5.826.6,21.492,21.492,0,0,0,5.813-.636,18.122,18.122,0,0,0,4.112-1.59,15.016,15.016,0,0,0,2.444-1.627,8.059,8.059,0,0,0,.807-.746s.022.213.076.54a11.056,11.056,0,0,0,.27,1.217,5.491,5.491,0,0,0,.528,1.291,1.57,1.57,0,0,0,.852.761h3.863s.03-.037.076-.1.109-.151.174-.253a2.971,2.971,0,0,0,.187-.34,1.384,1.384,0,0,0,.116-.359c.017-.115.026-1.494.029-3.5s0-4.633,0-7.248-.011-5.215-.016-7.162-.01-3.24-.01-3.24Z" transform="translate(46.84 16.992)" fill="#fff"/>
    <path id="Path_4" data-name="Path 4" d="M28.223,34.247H7.261V23.938H28.1V16.52H7.261V7.453H28.139V7.419h.033V0H0V41.695l6.24-.03H28.223Z" transform="translate(180.289 17.175)" fill="#fff"/>
    <path id="Path_5" data-name="Path 5" d="M21.825,18.072c-.565-.157-1.133-.3-1.7-.428s-1.144-.25-1.718-.366-1.149-.227-1.724-.34-1.149-.228-1.721-.35c-.509-.109-1.054-.214-1.608-.335s-1.119-.258-1.666-.432a8.837,8.837,0,0,1-1.566-.65,5.175,5.175,0,0,1-1.307-.989,3.873,3.873,0,0,1-.789-1.264,4.257,4.257,0,0,1-.279-1.445,4.471,4.471,0,0,1,.217-1.462,4.253,4.253,0,0,1,.7-1.315,4.957,4.957,0,0,1,1.13-1.041,6.6,6.6,0,0,1,1.382-.7,9.112,9.112,0,0,1,1.514-.416,11.65,11.65,0,0,1,1.527-.18,18.742,18.742,0,0,1,2.913.069,12.174,12.174,0,0,1,3.021.677,5.932,5.932,0,0,1,2.4,1.574,4.329,4.329,0,0,1,1.054,2.76c.012.309.023.7.033,1.1s.019.837.026,1.226.013.741.017,1,.006.41.006.41l.928.016,2.106.035,2.268.038,1.413.024V12.329c0-.279,0-.557,0-.836s-.007-.556-.022-.832-.037-.553-.073-.828a7.192,7.192,0,0,0-.156-.822A10.512,10.512,0,0,0,28.509,5.8a12.5,12.5,0,0,0-2.558-2.54,15.371,15.371,0,0,0-3.2-1.826A17.272,17.272,0,0,0,19.179.361a21.319,21.319,0,0,0-3.31-.353A19.748,19.748,0,0,0,12.511.2,16.984,16.984,0,0,0,9.259.989,14.333,14.333,0,0,0,6.267,2.45,11.216,11.216,0,0,0,3.826,4.584,11.474,11.474,0,0,0,2.115,7.269a11.9,11.9,0,0,0-.925,3.058,12.219,12.219,0,0,0-.083,3.256,7.981,7.981,0,0,0,.326,1.543,8.623,8.623,0,0,0,.61,1.45A9.251,9.251,0,0,0,2.9,17.9a9.625,9.625,0,0,0,1.065,1.163,8.949,8.949,0,0,0,1.343,1.024,11.207,11.207,0,0,0,1.474.77,16.52,16.52,0,0,0,1.567.583c.534.171,1.076.322,1.622.464.975.254,1.96.49,2.948.723s1.978.462,2.965.7,1.971.492,2.946.77,1.939.581,2.888.925a9.029,9.029,0,0,1,.99.424,6.879,6.879,0,0,1,.921.554,5.187,5.187,0,0,1,.8.7A4.071,4.071,0,0,1,25.5,29.239a5.23,5.23,0,0,1-.189,1.741,6.378,6.378,0,0,1-.714,1.63,6.265,6.265,0,0,1-1.1,1.345,6.184,6.184,0,0,1-2.169,1.261,9.585,9.585,0,0,1-2.537.478,16.2,16.2,0,0,1-2.644-.071c-.87-.089-1.714-.231-2.489-.386a13.5,13.5,0,0,1-2.179-.618,9.291,9.291,0,0,1-1.941-1A7.035,7.035,0,0,1,7.964,32.15a6.8,6.8,0,0,1-1.078-2.006,6.481,6.481,0,0,1-.253-1.014,9.933,9.933,0,0,1-.116-1.036c-.022-.348-.031-.7-.037-1.047s-.007-.7-.016-1.046H.046c-.005,0-.012.253-.019.637s-.014.9-.019,1.428S0,29.131,0,29.559s0,.745.014.832a10.46,10.46,0,0,0,.565,2.434,11.006,11.006,0,0,0,1.1,2.216A11.636,11.636,0,0,0,3.238,36.97a12,12,0,0,0,1.943,1.572,17.342,17.342,0,0,0,3.663,1.8,21.173,21.173,0,0,0,3.681.929,31.4,31.4,0,0,0,3.515.355c1.123.056,2.188.065,3.163.077a12.17,12.17,0,0,0,4.591-.869,14.168,14.168,0,0,0,4.05-2.454,13.79,13.79,0,0,0,3-3.635A11.506,11.506,0,0,0,32.3,30.332a9.339,9.339,0,0,0-.554-4.42,10.529,10.529,0,0,0-2.323-3.546,15.02,15.02,0,0,0-3.5-2.628,19.146,19.146,0,0,0-4.094-1.665" transform="translate(247.02 17.461)" fill="#fff"/>
    <path id="Path_6" data-name="Path 6" d="M21.825,18.072c-.565-.157-1.133-.3-1.7-.428s-1.144-.25-1.718-.366-1.149-.227-1.724-.34-1.149-.228-1.721-.35c-.509-.109-1.054-.214-1.608-.335S12.23,16,11.683,15.821a8.835,8.835,0,0,1-1.566-.65,5.174,5.174,0,0,1-1.307-.989,3.873,3.873,0,0,1-.79-1.264,4.253,4.253,0,0,1-.279-1.445,4.473,4.473,0,0,1,.217-1.462,4.255,4.255,0,0,1,.7-1.315,4.956,4.956,0,0,1,1.13-1.041,6.6,6.6,0,0,1,1.382-.7,9.119,9.119,0,0,1,1.515-.416,11.67,11.67,0,0,1,1.527-.181,18.739,18.739,0,0,1,2.913.069,12.173,12.173,0,0,1,3.021.677,5.932,5.932,0,0,1,2.4,1.574,4.33,4.33,0,0,1,1.054,2.76c.012.309.024.7.034,1.1s.019.837.026,1.226.013.741.017,1,.006.41.006.41l.928.016,2.106.035,2.268.038,1.413.024V12.329c0-.279,0-.557,0-.836s-.007-.556-.022-.832-.037-.553-.073-.828a7.209,7.209,0,0,0-.156-.822A10.516,10.516,0,0,0,28.509,5.8a12.5,12.5,0,0,0-2.559-2.54,15.371,15.371,0,0,0-3.2-1.826A17.27,17.27,0,0,0,19.178.361,21.31,21.31,0,0,0,15.869.008,19.751,19.751,0,0,0,12.511.2,16.994,16.994,0,0,0,9.259.989,14.34,14.34,0,0,0,6.267,2.45,11.215,11.215,0,0,0,3.826,4.584,11.474,11.474,0,0,0,2.115,7.269a11.9,11.9,0,0,0-.925,3.058,12.215,12.215,0,0,0-.083,3.256,7.981,7.981,0,0,0,.326,1.543,8.629,8.629,0,0,0,.61,1.45A9.25,9.25,0,0,0,2.9,17.9a9.615,9.615,0,0,0,1.065,1.163,8.955,8.955,0,0,0,1.343,1.024,11.2,11.2,0,0,0,1.474.77,16.5,16.5,0,0,0,1.567.583c.533.171,1.076.321,1.622.463.975.254,1.96.491,2.948.723s1.978.462,2.966.7,1.971.492,2.946.77,1.939.581,2.888.925a9.025,9.025,0,0,1,.99.424,6.877,6.877,0,0,1,.921.554,5.185,5.185,0,0,1,.8.7A4.069,4.069,0,0,1,25.5,29.239a5.227,5.227,0,0,1-.189,1.741,6.377,6.377,0,0,1-.713,1.63,6.262,6.262,0,0,1-1.1,1.345,6.181,6.181,0,0,1-2.169,1.261,9.585,9.585,0,0,1-2.537.478,16.2,16.2,0,0,1-2.644-.071c-.87-.089-1.714-.231-2.489-.386a13.516,13.516,0,0,1-2.179-.618,9.292,9.292,0,0,1-1.941-1A7.038,7.038,0,0,1,7.964,32.15a6.8,6.8,0,0,1-1.078-2.006,6.5,6.5,0,0,1-.253-1.014,9.933,9.933,0,0,1-.116-1.036c-.022-.348-.031-.7-.037-1.047s-.007-.7-.016-1.046H.046c-.005,0-.012.253-.019.637s-.014.9-.019,1.428S0,29.131,0,29.559s0,.745.014.832a10.455,10.455,0,0,0,.565,2.434,11.014,11.014,0,0,0,1.1,2.216A11.629,11.629,0,0,0,3.238,36.97a11.994,11.994,0,0,0,1.943,1.571,17.347,17.347,0,0,0,3.663,1.8,21.176,21.176,0,0,0,3.681.929,31.4,31.4,0,0,0,3.515.355c1.123.056,2.188.065,3.163.077a12.169,12.169,0,0,0,4.59-.869,14.168,14.168,0,0,0,4.05-2.454,13.793,13.793,0,0,0,3-3.635A11.507,11.507,0,0,0,32.3,30.332a9.339,9.339,0,0,0-.554-4.42,10.531,10.531,0,0,0-2.323-3.546,15.02,15.02,0,0,0-3.5-2.628,19.146,19.146,0,0,0-4.094-1.665" transform="translate(212.129 17.175)" fill="#fff"/>
    <path id="Path_7" data-name="Path 7" d="M18.635,41.408l-7.916,0L0,8.293,4.372,0Z" transform="translate(142.436 17.437)" fill="#7dab2a"/>
    <path id="Path_8" data-name="Path 8" d="M3.926.454,0,9.093,3.34,19.58,4.124,0Z" transform="translate(142.75 17.437)" fill="#679a30"/>
    <path id="Path_9" data-name="Path 9" d="M22.56.028,14.992,0V.037L0,54.356H7.58L22.56.037h0Z" transform="translate(124.248 17.399)" fill="#fff"/>
    <path id="Path_10" data-name="Path 10" d="M21.849,15.686l.241.254c.145.152.34.356.538.561s.4.412.556.57a3.407,3.407,0,0,0,.294.28c.023.012.05.029.081.046a.563.563,0,0,0,.1.047.349.349,0,0,0,.128.017.4.4,0,0,0,.155-.044.422.422,0,0,0,.135-.1.378.378,0,0,0,.074-.133.471.471,0,0,0,.021-.151.64.64,0,0,0-.023-.156c-.008-.029-.029-.1-.059-.2l-.116-.389-.149-.5-.159-.531c-.032-.135-.066-.265-.1-.384s-.064-.228-.091-.32-.051-.167-.067-.219l-.026-.081L19.632.63A.852.852,0,0,0,19.6.54a1.172,1.172,0,0,0-.116-.2A.9.9,0,0,0,19.27.125.7.7,0,0,0,18.947,0a.824.824,0,0,0-.09,0,.865.865,0,0,0-.095.011,1,1,0,0,0-.1.023c-.034.01-.07.021-.107.036a.747.747,0,0,0-.159.1c-.063.047-.133.105-.2.166s-.137.123-.2.179-.11.105-.144.139L7.043,12.364s-.027.029-.065.077-.089.113-.136.186a1.149,1.149,0,0,0-.119.227.292.292,0,0,0-.015.2.177.177,0,0,0,.025.046.286.286,0,0,0,.1.086.494.494,0,0,0,.223.048,1.248,1.248,0,0,0,.385-.069c.139-.044.521-.162,1.015-.314l1.69-.519,1.586-.486.7-.215L0,59.112H.025l.084-.268H8.034s.719-2.847,1.8-7.118,2.52-9.964,3.962-15.657,2.887-11.385,3.975-15.653,1.82-7.111,1.837-7.1" transform="translate(153.046)" fill="#fff"/>
  </g>
</svg>
