<svg id="Group_5" data-name="Group 5" xmlns="http://www.w3.org/2000/svg" width="51.576" height="34.541" viewBox="0 0 51.576 34.541">
    <path id="Path_14" data-name="Path 14" d="M2.349,34.541A2.346,2.346,0,0,1,.6,30.628l11.934-13.36L.6,3.913A2.348,2.348,0,1,1,4.1.785L17.435,15.7a2.341,2.341,0,0,1,0,3.129L4.1,33.757a2.324,2.324,0,0,1-1.271.735A2.373,2.373,0,0,1,2.349,34.541Z" transform="translate(0)" fill="#272b40" opacity="0.73"/>
    <path id="Path_15" data-name="Path 15" d="M2.347,34.541A2.347,2.347,0,0,1,.6,30.628l11.936-13.36L.6,3.913A2.338,2.338,0,0,1,0,2.217,2.347,2.347,0,0,1,4.1.785L17.435,15.7a2.346,2.346,0,0,1,0,3.129L4.1,33.757a2.324,2.324,0,0,1-1.271.735A2.373,2.373,0,0,1,2.347,34.541Z" transform="translate(17.394)" fill="#272b40"/>
    <path id="Path_16" data-name="Path 16" d="M2.348,34.541A2.347,2.347,0,0,1,.6,30.628l11.934-13.36L.6,3.913A2.348,2.348,0,1,1,4.1.785L17.434,15.7a2.341,2.341,0,0,1,0,3.129L4.1,33.757a2.324,2.324,0,0,1-1.271.735A2.374,2.374,0,0,1,2.348,34.541Z" transform="translate(33.543)" fill="#6b96d7"/>
</svg>
