<svg id="Group_2" data-name="Group 2" xmlns="http://www.w3.org/2000/svg" width="85.33" height="7.897" viewBox="0 0 85.33 7.897">
  <path id="Path_11" data-name="Path 11" d="M16.428,7.9H2.263a1.474,1.474,0,0,1-.881-.311A2.723,2.723,0,0,1,.663,6.74,4.821,4.821,0,0,1,.178,5.485,6.554,6.554,0,0,1,0,3.948H0A6.55,6.55,0,0,1,.178,2.411,4.814,4.814,0,0,1,.663,1.156,2.721,2.721,0,0,1,1.382.31,1.475,1.475,0,0,1,2.263,0H16.428a1.476,1.476,0,0,1,.881.31,2.722,2.722,0,0,1,.72.846,4.813,4.813,0,0,1,.485,1.255,6.542,6.542,0,0,1,.178,1.537h0a6.547,6.547,0,0,1-.178,1.537,4.82,4.82,0,0,1-.485,1.256,2.725,2.725,0,0,1-.72.847A1.475,1.475,0,0,1,16.428,7.9Z" fill="#272b40"/>
  <path id="Path_12" data-name="Path 12" d="M16.429,7.9H2.265a1.475,1.475,0,0,1-.881-.311,2.725,2.725,0,0,1-.72-.847A4.82,4.82,0,0,1,.178,5.485,6.547,6.547,0,0,1,0,3.948H0A6.542,6.542,0,0,1,.178,2.411,4.813,4.813,0,0,1,.663,1.156,2.723,2.723,0,0,1,1.383.31,1.476,1.476,0,0,1,2.265,0H16.429a1.475,1.475,0,0,1,.881.31,2.721,2.721,0,0,1,.719.846,4.814,4.814,0,0,1,.485,1.255,6.55,6.55,0,0,1,.178,1.537h0a6.554,6.554,0,0,1-.178,1.537A4.821,4.821,0,0,1,18.03,6.74a2.723,2.723,0,0,1-.719.847A1.474,1.474,0,0,1,16.429,7.9Z" transform="translate(33.318)" fill="#272b40"/>
  <path id="Path_13" data-name="Path 13" d="M16.428,7.9H2.263a1.474,1.474,0,0,1-.881-.311A2.723,2.723,0,0,1,.663,6.74,4.821,4.821,0,0,1,.178,5.485,6.554,6.554,0,0,1,0,3.948H0A6.55,6.55,0,0,1,.178,2.411,4.814,4.814,0,0,1,.663,1.156,2.721,2.721,0,0,1,1.382.31,1.475,1.475,0,0,1,2.263,0H16.428a1.476,1.476,0,0,1,.881.31,2.722,2.722,0,0,1,.72.846,4.813,4.813,0,0,1,.485,1.255,6.543,6.543,0,0,1,.178,1.537h0a6.547,6.547,0,0,1-.178,1.537,4.82,4.82,0,0,1-.485,1.256,2.725,2.725,0,0,1-.72.847A1.475,1.475,0,0,1,16.428,7.9Z" transform="translate(66.637)" fill="#6c97d7"/>
</svg>
